<svg width="20" height="20" viewBox="0 0 76 76" fill="none" xmlns="http://www.w3.org/2000/svg">
<g clip-path="url(#clip0)">
<path d="M33.6079 35.1545V37.143C31.8195 37.5261 30.6949 38.8031 30.6949 40.4632C30.6949 42.4699 32.3173 43.3638 34.0688 44.0571C35.4884 44.6226 36.0599 45.2064 36.0599 46.0455C36.0599 46.9942 35.2671 47.6144 34.0688 47.6144C33.1469 47.6144 32.2067 47.3408 31.4508 46.8482L31.1189 46.6293L30.4368 48.4901L30.6211 48.6178C31.3033 49.0921 32.391 49.4387 33.4419 49.5117V51.4637H35.2671V49.4205C37.1108 49.0191 38.3276 47.6327 38.3276 45.9178C38.3276 44.1665 37.3689 43.0354 35.1381 42.1415C33.4235 41.4483 32.9257 41.0105 32.9257 40.2443C32.9257 39.624 33.3866 38.8943 34.6772 38.8943C35.8755 38.8943 36.6314 39.3139 36.9633 39.4963L37.2767 39.6788L37.9773 37.8545L37.7561 37.7268C37.0555 37.3254 36.2811 37.0883 35.3962 37.0335V35.1545H33.6079Z" fill="#566A85"></path>
<path d="M23.3385 43.3084C23.3385 49.365 28.3163 54.2906 34.4372 54.2906C40.5582 54.2906 45.536 49.365 45.536 43.3084C45.536 37.2517 40.5582 32.3261 34.4372 32.3261C28.3163 32.3261 23.3385 37.2517 23.3385 43.3084ZM43.2314 43.3084C43.2314 48.1063 39.286 52.0285 34.4188 52.0285C29.57 52.0285 25.6062 48.1245 25.6062 43.3084C25.6062 38.5105 29.5516 34.5883 34.4188 34.5883C39.286 34.6065 43.2314 38.5105 43.2314 43.3084Z" fill="#566A85"></path>
<path d="M40.1163 19.8483C38.8994 19.8483 37.6089 19.4652 36.6318 18.8084L36.2999 18.5895L35.4887 20.8517L35.6731 20.9794C36.5764 21.6179 38.0145 22.0557 39.4341 22.1287V24.6827H41.6465V22.0192C43.6929 21.5996 45.6656 20.0672 45.6656 17.495C45.6656 15.2328 44.4304 13.7734 41.5359 12.6058C39.2313 11.6572 38.5676 11.0917 38.5676 10.0154C38.5676 9.15794 39.1944 8.15457 40.9643 8.15457C42.5683 8.15457 43.5823 8.7201 44.0248 8.9755L44.3382 9.15793L45.1863 6.9323L44.965 6.8046C44.0432 6.27555 43.0108 5.96542 41.8124 5.89245V3.42966H39.6185V6.02015C37.277 6.49447 35.7837 8.15457 35.7837 10.3255C35.7837 12.8977 37.8854 14.0835 40.1716 14.9592C42.0705 15.7254 42.8449 16.5098 42.8449 17.6774C42.8449 18.9544 41.7202 19.8483 40.1163 19.8483Z" fill="#566A85"></path>
<path d="M40.5954 28.1671C48.4493 28.1671 54.8283 21.855 54.8283 14.0835C54.8283 6.31205 48.4493 0 40.5954 0C32.7414 0 26.3624 6.31205 26.3624 14.0835C26.3624 21.855 32.7599 28.1671 40.5954 28.1671ZM40.5954 2.26212C47.1772 2.26212 52.5422 7.57081 52.5422 14.0835C52.5422 20.5963 47.1772 25.9049 40.5954 25.9049C34.0135 25.9049 28.6485 20.5963 28.6485 14.0835C28.6485 7.57081 34.0135 2.26212 40.5954 2.26212Z" fill="#566A85"></path>
<path d="M17.2549 30.7032C16.4805 30.7032 15.6878 30.4661 15.0609 30.0647L14.7291 29.8458L14.1207 31.5059L14.305 31.6336C14.8766 32.035 15.7799 32.3269 16.6833 32.3816V34.0234H18.3242V32.2904C19.8728 31.9438 20.9053 30.758 20.9053 29.2985C20.9053 27.8026 20.0941 26.8357 18.1767 26.0513C16.7571 25.4675 16.333 25.1209 16.333 24.4824C16.333 23.9534 16.7018 23.3878 17.7527 23.3878C18.7667 23.3878 19.3935 23.7527 19.67 23.8986L19.9835 24.0811L20.6103 22.4392L20.3891 22.3115C19.8175 21.9831 19.1538 21.7824 18.4164 21.7277V20.1406H16.794V21.8189C15.2822 22.1655 14.3235 23.2601 14.3235 24.6648C14.3235 26.3797 15.7062 27.1641 17.218 27.7479C18.3979 28.2222 18.8773 28.6965 18.8773 29.3897C18.8957 30.1924 18.232 30.7032 17.2549 30.7032Z" fill="#566A85"></path>
<path d="M17.5683 36.5587C22.8411 36.5587 27.1368 32.3081 27.1368 27.0906C27.1368 21.8731 22.8411 17.6225 17.5683 17.6225C12.2955 17.6225 7.99976 21.8731 7.99976 27.0906C7.99976 32.3081 12.277 36.5587 17.5683 36.5587ZM17.5683 19.9029C21.5875 19.9029 24.8507 23.1319 24.8507 27.1088C24.8507 31.0858 21.5875 34.3148 17.5683 34.3148C13.5491 34.3148 10.2859 31.0858 10.2859 27.1088C10.2859 23.1319 13.5491 19.9029 17.5683 19.9029Z" fill="#566A85"></path>
<path d="M67.9732 67.2252C67.881 66.6414 67.5307 66.1124 67.0145 65.784C66.0927 65.2002 64.839 64.4158 64.0646 63.9415C62.7188 63.1023 61.336 62.2814 59.9717 61.4604C58.5521 60.6213 57.3169 59.5632 55.9894 58.4504C55.381 57.9396 54.7542 57.4105 54.1089 56.8815C52.0994 55.2943 49.3523 54.1998 46.7896 53.9626C46.4394 53.9261 46.0706 53.9079 45.7019 53.9261C44.061 53.9444 42.5493 54.364 41.0743 54.7835C40.6872 54.893 40.3 55.0025 39.9128 55.1119C37.258 55.8051 34.5109 56.1882 31.7639 56.2795L30.8605 56.2977C28.3347 56.3707 25.7352 56.4436 23.1541 56.845C22.5641 56.9362 21.9926 57.0457 21.4395 57.374C21.3289 57.447 21.2182 57.52 21.1076 57.593C21.1998 57.2646 21.126 56.8997 20.9232 56.6261C18.0103 52.8133 13.014 50.6424 11.0597 50.1863L10.986 50.1681C10.5066 50.0586 9.49263 49.8215 8.81048 50.9525C6.83777 54.2363 10.5804 57.9031 12.3872 59.6544C14.323 61.5517 16.4985 63.157 18.6003 64.7259C19.2271 65.2003 19.8908 65.6928 20.5361 66.1671C22.2322 67.4624 24.1312 68.4657 25.8089 69.3414C26.3436 69.615 26.8782 69.9434 27.4498 70.29C28.6113 70.9833 29.8281 71.713 31.1186 72.1508C32.2986 72.5704 33.6813 72.6434 35.1931 72.388C36.1702 72.2238 37.1289 71.9684 38.0507 71.713C38.7145 71.5305 39.3413 71.3664 39.9681 71.2387C41.8855 70.8191 43.8951 70.4907 46.0891 70.1988C47.8221 69.9799 49.8317 69.834 51.6384 70.3995C52.7815 70.7643 53.8508 71.5853 54.9017 72.388C55.1782 72.6069 55.4732 72.8258 55.7498 73.0265C56.0079 73.2089 56.266 73.4096 56.5241 73.592C57.0219 73.9569 57.5566 74.3582 58.0728 74.7231C58.3493 74.9237 58.6259 75.0879 58.884 75.2703C59.0683 75.3798 59.2527 75.5075 59.4371 75.6352C59.8058 75.8906 60.2298 76.0001 60.6539 76.0001C61.2807 76.0001 61.9076 75.7264 62.3132 75.2156C62.6819 74.7596 63.0691 74.3035 63.4562 73.8474C63.7512 73.5008 64.0462 73.1542 64.3412 72.7893C64.544 72.5522 66.4798 70.1806 67.5307 68.8671C67.9179 68.4293 68.0653 67.809 67.9732 67.2252ZM55.381 69.9069C54.4777 69.2502 53.4637 68.6117 52.3575 68.2468C51.1591 67.8637 49.9423 67.736 48.7624 67.736C47.7299 67.736 46.7343 67.8272 45.8125 67.9549C43.5448 68.2468 41.4615 68.5934 39.4888 69.0313C38.8066 69.1772 38.1245 69.3596 37.4608 69.5421C36.5574 69.7792 35.6909 70.0164 34.8244 70.1623C33.7182 70.3447 32.7042 70.3083 31.893 70.0164C30.8236 69.6515 29.7175 68.9765 28.6481 68.338C28.0766 67.9914 27.4866 67.6448 26.9151 67.3347C25.2374 66.4408 23.5044 65.5286 21.9741 64.3611C21.3289 63.8685 20.6651 63.376 20.0199 62.9016C17.9734 61.3875 15.8717 59.8186 14.028 58.0308C12.8112 56.845 10.0826 54.1815 10.6726 52.412C11.9078 52.7403 16.4432 54.4917 19.1165 57.9761C19.4483 58.3956 20.0014 58.5416 20.4808 58.3409C20.0752 59.0159 19.9277 59.8368 20.112 60.603C20.702 62.9016 23.2647 62.9746 24.629 63.0111C24.7212 63.0111 24.8133 63.0111 24.9055 63.0111C25.7536 63.0476 26.6017 63.0293 27.4129 63.0111C27.9844 62.9929 28.5928 62.9929 29.1644 62.9929H29.2934C31.5058 63.0111 33.8104 63.0293 36.0412 63.1935C37.0367 63.2665 38.0323 63.3577 39.0279 63.4672L39.1201 63.4854C39.5441 63.5401 39.7469 63.5584 40.7056 64.1422C41.2403 64.4705 41.9408 64.3246 42.2911 63.7956C42.623 63.2665 42.4755 62.5733 41.9409 62.2267C40.6134 61.4057 40.0972 61.3145 39.3966 61.2233H39.3229C38.2904 61.1138 37.258 61.0226 36.2255 60.9496C33.921 60.7855 31.598 60.7672 29.3303 60.749H29.2012C28.5928 60.749 27.9844 60.749 27.3945 60.7672C26.5648 60.7855 25.7905 60.8037 24.9977 60.7672C24.9055 60.7672 24.8133 60.7672 24.7027 60.7672C23.2831 60.7307 22.4719 60.603 22.3429 60.074C22.2691 59.8186 22.4166 59.472 22.6563 59.3443C22.8591 59.2348 23.1725 59.1801 23.5412 59.1071C25.9748 58.7423 28.5191 58.6693 30.9711 58.5963C31.2661 58.5963 31.5795 58.5781 31.8745 58.5781C34.7875 58.4869 37.7005 58.0673 40.5212 57.3376C40.9268 57.2281 41.3324 57.1186 41.738 57.0092C43.1208 56.6261 44.4298 56.243 45.7756 56.243C46.0706 56.243 46.3472 56.243 46.6237 56.2795C48.7623 56.4801 51.0485 57.3923 52.7262 58.724C53.3346 59.2166 53.9614 59.7274 54.5514 60.2382C55.8788 61.3692 57.2431 62.5185 58.8287 63.4672C59.1237 63.6496 59.4186 63.8138 59.7136 63.9962L55.381 69.9069ZM62.5713 71.3846C62.2763 71.7312 61.9997 72.0778 61.7048 72.4245C61.3545 72.844 60.9857 73.2819 60.6354 73.7015C60.4879 73.592 60.322 73.5008 60.1561 73.3913C59.898 73.2271 59.6583 73.063 59.4186 72.8988C58.9024 72.5339 58.4046 72.1691 57.9068 71.7859C57.6672 71.6218 57.4459 71.4393 57.2063 71.2752L61.6126 65.109C62.0182 65.3644 62.4238 65.6016 62.8294 65.857C63.5668 66.3131 64.7283 67.0428 65.6133 67.6083C64.5624 68.94 62.7556 71.1474 62.5713 71.3846Z" fill="#566A85"></path>
</g>
<defs>
<clipPath id="clip0">
<path d="M0 0H76V76H0V0Z" fill="white"></path>
</clipPath>
</defs>
</svg>