<svg width="" height="" viewBox="0 0 76 76" fill="none" xmlns="http://www.w3.org/2000/svg">
<g clip-path="url(#clip0)">
<path d="M53.5056 66.3243C52.8266 66.1494 52.1389 66.5711 51.9704 67.2591L50.7038 72.4019C50.5328 73.0923 50.947 73.7891 51.6259 73.9615C51.7285 73.9885 51.8324 74.0001 51.9338 74.0001C52.5012 74.0001 53.0168 73.6104 53.1612 73.0267L54.4278 67.8839C54.5975 67.1948 54.1845 66.4967 53.5056 66.3243Z" fill="#566A85"></path>
<path d="M38 40.5716C38.1646 40.5716 38.3294 40.5395 38.4839 40.474L52.4173 34.6213C53.0633 34.35 53.3698 33.5978 53.1026 32.9421C52.8353 32.285 52.0918 31.9765 51.4471 32.2453L38 37.8946L2.53338 22.9983V22.5715C2.53338 21.8618 1.96591 21.2858 1.26677 21.2858C0.567625 21.2858 0 21.8618 0 22.5715V23.8571C0 24.3779 0.309047 24.8472 0.782859 25.0452L37.5162 40.4738C37.6706 40.5394 37.8354 40.5716 38 40.5716Z" fill="#566A85"></path>
<path d="M53.0682 53.7438C52.7591 53.1074 52.0016 52.8451 51.3721 53.1601C48.9667 54.3674 44.9488 55.7714 39.2666 55.963V44.4288C39.2666 43.7191 38.6991 43.1431 38 43.1431C37.3008 43.1431 36.7334 43.7191 36.7334 44.4288V55.9514C21.0052 55.4423 15.9297 45.7711 15.2 44.1613V35.4288C15.2 34.7191 14.6325 34.1431 13.9334 34.1431C13.2342 34.1431 12.6667 34.7191 12.6667 35.4288V44.4288C12.6667 44.5921 12.6972 44.7541 12.7567 44.907C12.9771 45.4637 18.3681 58.5716 38.0001 58.5716C44.8616 58.5716 49.67 56.8821 52.4946 55.4652C53.1225 55.1503 53.3797 54.3802 53.0682 53.7438Z" fill="#566A85"></path>
<path d="M56.9989 67.5714C56.2984 67.5714 55.7322 68.1474 55.7322 68.857V72.7142C55.7322 73.4238 56.2984 73.9999 56.9989 73.9999C57.6993 73.9999 58.2655 73.4238 58.2655 72.7142V68.857C58.2655 68.1474 57.6993 67.5714 56.9989 67.5714Z" fill="#566A85"></path>
<path d="M74.7334 21.2856C74.0329 21.2856 73.4668 21.8616 73.4668 22.5713V22.9956L58.2668 29.3457V27.0224L75.2173 19.902C75.6909 19.704 76.0001 19.2347 76.0001 18.714C76.0001 18.1933 75.6911 17.7253 75.2186 17.526L38.4839 2.09747C38.1735 1.9676 37.8265 1.9676 37.5162 2.09747L0.782859 17.5261C0.309047 17.7254 0 18.1934 0 18.7141C0 19.2349 0.309047 19.7042 0.782859 19.9022L37.5162 35.3308C37.6708 35.3963 37.8354 35.4286 38.0001 35.4286C38.1649 35.4286 38.3295 35.3965 38.4841 35.3308L51.7664 29.7521C52.4137 29.4821 52.7203 28.7299 52.4529 28.0729C52.1856 27.4172 51.4446 27.1072 50.7986 27.3772L38 32.7516L4.579 18.7141L38 4.67665L71.421 18.7141L56.8784 24.8226L42.9489 19.5434C43.0224 19.276 43.0668 19.0009 43.0668 18.7141C43.0668 16.5516 40.8412 14.857 38.0001 14.857C35.1591 14.857 32.9335 16.5516 32.9335 18.7141C32.9335 20.8767 35.1591 22.5713 38.0001 22.5713C39.2681 22.5713 40.3992 22.2202 41.2782 21.6546L55.7334 27.1331V58.8082C54.2628 59.3418 53.2 60.7547 53.2 62.4288C53.2 64.5554 54.905 66.286 57 66.286C59.095 66.286 60.8 64.5554 60.8 62.4288C60.8 60.7549 59.7373 59.3419 58.2666 58.8082V51.5105C61.9032 48.7243 63.2066 45.0138 63.2636 44.8492C63.3092 44.7142 63.3332 44.5716 63.3332 44.4289V35.4289C63.3332 34.7192 62.7671 34.1432 62.0666 34.1432C61.3661 34.1432 60.8 34.7192 60.8 35.4289V44.1911C60.5809 44.7362 59.8196 46.4167 58.2666 48.0752V32.1268L75.216 25.0464C75.6909 24.8484 76 24.3778 76 23.8571V22.5714C76 21.8616 75.4339 21.2856 74.7334 21.2856ZM38 19.9998C36.4534 19.9998 35.4666 19.2386 35.4666 18.7141C35.4666 18.1895 36.4533 17.4285 38 17.4285C39.5467 17.4285 40.5334 18.1897 40.5334 18.7141C40.5334 19.2388 39.5466 19.9998 38 19.9998ZM57 63.7144C56.3009 63.7144 55.7334 63.1371 55.7334 62.4287C55.7334 61.7202 56.3009 61.143 57 61.143C57.6991 61.143 58.2666 61.7202 58.2666 62.4287C58.2666 63.137 57.6991 63.7144 57 63.7144Z" fill="#566A85"></path>
<path d="M62.0285 67.2588C61.8588 66.571 61.1696 66.1505 60.4934 66.324C59.8144 66.4963 59.4015 67.1945 59.5713 67.8836L60.8379 73.0264C60.9823 73.6101 61.4978 73.9998 62.0653 73.9998C62.1667 73.9998 62.2705 73.9882 62.3732 73.9612C63.0521 73.789 63.4651 73.092 63.2953 72.4016L62.0285 67.2588Z" fill="#566A85"></path>
</g>
<defs>
<clipPath id="clip0">
<path d="M0 0H76V76H0V0Z" fill="white"></path>
</clipPath>
</defs>
</svg>