<svg width="" height="" viewBox="0 0 76 76" fill="none" xmlns="http://www.w3.org/2000/svg">
<g clip-path="url(#clip0)">
<path d="M20.1741 68.5851C19.6598 65.6071 17.0568 63.3335 13.9332 63.3335C11.4392 63.3335 9.27823 64.7825 8.24585 66.8826C8.0419 66.737 7.82399 66.6077 7.59985 66.4912V45.6001C7.59985 44.901 7.03237 44.3335 6.33323 44.3335C5.63409 44.3335 5.06662 44.901 5.06662 45.6001V65.8667C2.27243 65.8667 0 68.1392 0 70.9335C0 73.7278 2.27243 76.0001 5.06662 76.0001H19C21.095 76.0001 22.8 74.2952 22.8 72.2001C22.8 70.5142 21.6967 69.0816 20.1741 68.5851ZM19 73.4667H5.06662C3.66952 73.4667 2.53323 72.3306 2.53323 70.9333C2.53323 69.5361 3.66952 68.4001 5.06662 68.4001C6.24848 68.4001 7.29852 69.0866 7.67971 70.1101C7.89376 70.684 8.48662 71.0221 9.09209 70.9132C9.69505 70.8042 10.1332 70.2798 10.1332 69.6667C10.1332 67.5717 11.8382 65.8667 13.9332 65.8667C16.0283 65.8667 17.7332 67.5717 17.7332 69.6667C17.7332 70.3659 18.3007 70.9333 18.9999 70.9333C19.6978 70.9333 20.2665 71.502 20.2665 72.2C20.2665 72.8979 19.698 73.4667 19 73.4667Z" fill="#566A85"></path>
<path d="M17.7338 21.0781C17.7338 21.6719 17.1316 22.3342 16.4481 22.325C15.7875 22.3161 15.2004 21.6719 15.2004 21.123V7.59985H13.9338C13.2346 7.59985 12.6672 7.03237 12.6672 6.33323V1.26662C12.6672 0.567477 13.2346 0 13.9338 0H24.067C24.7662 0 25.3336 0.567477 25.3336 1.26662V6.33338C25.3336 7.03252 24.7662 7.6 24.067 7.6H22.8004V11.4C22.8004 12.0991 22.2329 12.6666 21.5338 12.6666C20.8346 12.6666 20.2672 12.0991 20.2672 11.4V6.33338C20.2672 5.63424 20.8346 5.06677 21.5338 5.06677H22.8004V2.53338H15.2004V5.06677H16.4672C17.1663 5.06677 17.7338 5.63424 17.7338 6.33338V21.0781Z" fill="#566A85"></path>
<path d="M70.933 65.8667V45.6001C70.933 44.901 70.3656 44.3335 69.6664 44.3335C68.9673 44.3335 68.3998 44.901 68.3998 45.6001V66.4912C68.1757 66.6077 67.9578 66.7369 67.7538 66.8826C66.7214 64.7825 64.5605 63.3335 62.0664 63.3335C58.9429 63.3335 56.3398 65.6071 55.8255 68.5851C54.303 69.0816 53.1997 70.5142 53.1997 72.2001C53.1997 72.6472 53.2908 73.0691 53.434 73.4667H31.6663C30.9671 73.4667 30.3997 74.0342 30.3997 74.7333C30.3997 75.4325 30.9671 76 31.6663 76H70.9329C73.7272 76.0001 75.9997 73.7277 75.9997 70.9335C75.9997 68.1393 73.7272 65.8667 70.933 65.8667ZM70.933 73.4667H56.9997C56.3017 73.4667 55.733 72.8981 55.733 72.2001C55.733 71.5022 56.3017 70.9335 56.9997 70.9335C57.6988 70.9335 58.2663 70.366 58.2663 69.6669C58.2663 67.5718 59.9712 65.8669 62.0663 65.8669C64.1613 65.8669 65.8663 67.5718 65.8663 69.6669C65.8663 70.2799 66.3046 70.8044 66.9074 70.9133C67.509 71.0234 68.1057 70.684 68.3198 70.1103C68.701 69.0868 69.7512 68.4003 70.9329 68.4003C72.33 68.4003 73.4663 69.5364 73.4663 70.9336C73.4663 72.3309 72.3301 73.4667 70.933 73.4667Z" fill="#566A85"></path>
<path d="M43.067 25.3328C43.067 22.5385 40.7946 20.2662 38.0004 20.2662C35.206 20.2662 32.9338 22.5386 32.9338 25.3328C32.9338 28.127 35.206 30.3995 38.0004 30.3995C40.7947 30.3995 43.067 28.127 43.067 25.3328ZM35.467 25.3328C35.467 23.9357 36.6031 22.7995 38.0004 22.7995C39.3975 22.7995 40.5338 23.9356 40.5338 25.3328C40.5338 26.7299 39.3976 27.8662 38.0004 27.8662C36.6033 27.8661 35.467 26.7299 35.467 25.3328Z" fill="#566A85"></path>
<path d="M62.0675 43.0664H51.9341C51.235 43.0664 50.6675 43.6339 50.6675 44.3331V58.2664H49.4009C48.7017 58.2664 48.1343 58.8339 48.1343 59.5331C48.1343 60.2322 48.7017 60.7997 49.4009 60.7997H64.6009C65.3 60.7997 65.8675 60.2322 65.8675 59.5331C65.8675 58.8339 65.3 58.2664 64.6009 58.2664H63.3343V44.3331C63.3343 43.6339 62.7668 43.0664 62.0675 43.0664ZM60.8009 58.2664H53.2009V53.1998H60.8009V58.2664ZM60.8009 50.6665H53.2009V45.5998H60.8009V50.6665Z" fill="#566A85"></path>
<path d="M50.6664 69.6669C50.6664 68.9678 50.0989 68.4003 49.3998 68.4003H45.5998V44.3337C45.5998 43.6346 45.0323 43.0671 44.3332 43.0671H31.6666C30.9674 43.0671 30.3999 43.6346 30.3999 44.3337V68.4003H26.5999C25.9008 68.4003 25.3333 68.9678 25.3333 69.6669V74.7336C25.3333 75.4327 25.9008 76.0002 26.5999 76.0002C27.2991 76.0002 27.8666 75.4327 27.8666 74.7336V70.9336H49.3998C50.0989 70.9337 50.6664 70.3662 50.6664 69.6669ZM43.0664 55.7337H41.7998C41.1007 55.7337 40.5332 56.3012 40.5332 57.0003C40.5332 57.6995 41.1007 58.2669 41.7998 58.2669H43.0664V68.4003H32.933V45.6003H43.0664V55.7337Z" fill="#566A85"></path>
<path d="M24.0675 43.0664H13.9343C13.2351 43.0664 12.6676 43.6339 12.6676 44.3331V58.2664H11.4009C10.7017 58.2664 10.1343 58.8339 10.1343 59.5331C10.1343 60.2322 10.7017 60.7998 11.4009 60.7998H26.6009C27.3 60.7998 27.8675 60.2323 27.8675 59.5332C27.8675 58.8341 27.3 58.2666 26.6009 58.2666H25.3343V44.3332C25.3343 43.6339 24.7668 43.0664 24.0675 43.0664ZM22.8009 58.2664H15.2009V53.1998H22.8009V58.2664ZM22.8009 50.6664H15.2009V45.5998H22.8009V50.6664Z" fill="#566A85"></path>
<path fill-rule="evenodd" clip-rule="evenodd" d="M35.7543 2.58066C37.1083 1.05206 39.499 1.06665 40.8343 2.61166L75.2591 42.4447C75.7556 43.0192 75.6924 43.8875 75.1178 44.3841C74.5433 44.8806 73.675 44.8174 73.1784 44.2428L38.7536 4.40982C38.5064 4.1237 38.0636 4.121 37.8129 4.40408L2.51365 44.2555C2.01013 44.8239 1.14112 44.8766 0.572668 44.373C0.00421286 43.8695 -0.0484259 43.0005 0.455096 42.432L35.7543 2.58066Z" fill="#566A85"></path>
</g>
<defs>
<clipPath id="clip0">
<path d="M0 0H76V76H0V0Z" fill="white"></path>
</clipPath>
</defs>
</svg>