<svg width="" height="" x="0px" y="0px" viewBox="0 0 76 76" fill="none" xmlns="http://www.w3.org/2000/svg">
<path fill-rule="evenodd" clip-rule="evenodd" d="M73 46.0001C69.5 49.5001 50.2777 52.0001 38 52.0001C25.7189 52.0001 6.5 49.5 3 46.0001C5.5 61.5 19.1836 73.0001 37.988 73.0001C56.7786 73.0001 71.6403 61.4293 73 46.0001ZM4 44.0001C4 44.0001 5.36254 43.2126 6 43.0001C7.5 42.5 7.78524 42.387 10.5 42.004C11.302 41.8908 12.3032 41.5 12.1 40.5C11.9521 39.7722 11.4959 39.4095 10.5 39.5C5 40 3.5 41 2 42C0.5 43 0.511026 43.6791 0.5 44.0001C0.523123 61.3911 17.4137 75.5 37.988 75.5C58.5586 75.5 75.4585 61.3865 75.5 44.0001M4 44.0001C4 44.0001 5.45071 44.7367 6 45.0001C7.35133 45.648 8.48219 46.0838 13 47C20.3966 48.5 29.6222 49.5001 38 49.5001C47.6396 49.5001 55.5958 48.6455 63 47.0001C66.8829 46.1372 68.3906 45.6851 70 45.0001C71.0287 44.5622 72 44.0001 72 44.0001C72 44.0001 70.6365 43.2122 70 43.0001C68.7812 42.5938 68.2116 42.3793 65.5 42C64.5 41.8601 63.7512 41.4499 63.9 40.5C64 39.8688 64.5 39.4087 65.5 39.5001C71 40 72.5 41 74 42C75.5 43 75.4893 43.68 75.5 44.0001M19.5 46C19.5 46 18.3657 46.012 18 45C13.5 32.5 15.2281 20.9756 22 11C26.442 4.45801 32.4758 0.499992 38 0.499992C43.5135 0.499992 49.5475 4.45864 54 11C60.7722 20.965 62.5 32.5 58 45C57.6355 46.0124 56.5 46 56.5 46C56.5 46 55.078 45.6449 55.5 44.5C61 29.5 56 19 52 13C48 6.99999 42.6688 2.99999 38 2.99999C33.3312 2.99999 28 6.99999 24 13C20 19 15 28.5 20.5 44.5C20.8949 45.64 19.5 46 19.5 46ZM31.9936 32.9249C31.2843 32.1832 31.4222 31.5 31.75 31C32.0778 30.5 33.0316 30.4253 33.75 31C35 32 36.2812 32.5 38 32.5C39.7188 32.5 42.2409 32 42.25 30C42.2558 28.7181 40.6672 27.4499 38 27C35.335 26.5502 32.5 25 32.5 22C32.5 20 34.5 17.5 36.75 17.5V16.5C36.75 16.2239 37 15.5 38 15.5C39 15.5 39.25 16.2239 39.25 16.5V17.5C41 17.5 42.3226 18.1562 43.5 19.5C44 20.0706 44 20.75 43.5 21.25C43 21.75 42 21.5 41.5 21C40.5 20 39.7188 19.75 38 19.75C36.2812 19.75 35 21 35 22C35 23 35.9673 24.1487 38 24.5C41.273 25.0568 44.75 26.5 44.75 30C44.75 32.215 43 35 39.25 35V36C39.25 36.2761 39 37 38 37C37 37 36.75 36.2761 36.75 36V35C35.2611 34.8065 33.5 34.5 31.9936 32.9249Z" fill="#566A85"></path>
</svg>